<svg xmlns="http://www.w3.org/2000/svg" aria-hidden="true" style="position:absolute;width:0;height:0;overflow:hidden">
    <defs>
        <symbol id="twitter" viewBox="0 0 38 32">
            <path
                d="M33.273 9.188v.984c0 9.773-7.383 20.953-20.953 20.953-4.219 0-8.086-1.195-11.32-3.305.563.07 1.125.141 1.758.141 3.445 0 6.609-1.195 9.141-3.164-3.234-.07-5.977-2.18-6.891-5.133.492.07.914.141 1.406.141.633 0 1.336-.141 1.898-.281-3.375-.703-5.906-3.656-5.906-7.242v-.07c.984.563 2.18.844 3.375.914a7.265 7.265 0 0 1-3.305-6.117c0-1.406.352-2.672.984-3.727a21.417 21.417 0 0 0 15.258 7.734 6.92 6.92 0 0 1-.211-1.688 7.382 7.382 0 0 1 7.383-7.383c2.109 0 4.008.844 5.414 2.32a15.61 15.61 0 0 0 4.641-1.828c-.563 1.758-1.688 3.164-3.234 4.078A13.864 13.864 0 0 0 36.93 5.39c-.984 1.477-2.25 2.742-3.656 3.797z" />
        </symbol>
        <symbol id="small-arrow" viewBox="0 0 16 32">
            <path stroke-linecap="round" stroke-linejoin="round" stroke-width="3.2" d="M1.6 30.4 14.4 16 1.6 1.6" />
        </symbol>
        <symbol id="right-arrow" viewBox="0 0 34 32">
            <path stroke-linecap="square" stroke-linejoin="round" stroke-width="3.765"
                d="m1.882 15.878 25.832-.258M18.105 3.598l12.279 12.279-12.526 12.526" />
        </symbol>
        <symbol id="logo-5" viewBox="0 0 79 32">
            <path
                d="M.456 19.856V.386h11.467v19.461l-11.467.009zm10.078-4.53.295-2.151-1.066-.105-.324 1.656c-.666.333-1.485.495-2.465.495-1.332 0-2.389-.419-3.159-1.266-.78-.847-1.161-1.96-1.161-3.35 0-1.351.381-2.465 1.132-3.34s1.742-1.313 2.969-1.313c.628 0 1.161.076 1.589.219s.818.333 1.19.58l.314 1.637 1.085-.105-.314-2.151a5.704 5.704 0 0 0-1.627-.952c-.628-.238-1.408-.362-2.332-.362-1.094 0-2.037.266-2.826.809S2.426 6.883 1.988 7.768a6.471 6.471 0 0 0-.657 2.883c0 1.627.504 2.988 1.513 4.073s2.322 1.627 3.949 1.627c1.599 0 2.845-.343 3.74-1.028zM15.815 19.856V.386h4.929v19.461h-4.929v.009zm.523-3.673h3.892v-.98h-1.342V4.335h-2.569v.98h1.361v9.887h-1.342v.98zM24.637 19.856V.386h8.66v19.461h-8.66v.009zm1.57-10.753-.276 1.77.999.124.295-1.323c.428-.209.914-.314 1.485-.314.685 0 1.151.171 1.389.514s.352.79.352 1.342v.685a16.526 16.526 0 0 0-1.361-.067c-.856 0-1.675.152-2.436.457s-1.142.942-1.142 1.903c0 .818.257 1.38.78 1.684.523.314 1.037.466 1.542.466.619 0 1.151-.162 1.589-.485s.78-.685 1.028-1.104v.038c.019 1.037.485 1.551 1.399 1.551.352 0 .685-.086.999-.257l-.019-.79a1.265 1.265 0 0 1-.514.105c-.438 0-.657-.276-.657-.828v-3.645c0-1.713-.914-2.569-2.741-2.569-.504 0-.98.057-1.427.171a4.582 4.582 0 0 0-1.285.571zm4.235 4.206c-.048.628-.305 1.132-.771 1.494-.466.371-.961.552-1.494.552-.333 0-.657-.095-.961-.276-.314-.181-.466-.523-.466-1.018 0-.6.238-.98.695-1.161.466-.181.98-.266 1.561-.266.257 0 .504.009.742.038.238.019.476.038.685.048v.59h.01zM37.198 19.856V.386h7.87v19.461h-7.87v.009zm7.042-5.891c0-.609-.162-1.056-.485-1.351s-.714-.495-1.19-.609c-.476-.114-.942-.209-1.408-.285s-.866-.2-1.19-.362c-.324-.162-.485-.447-.485-.856 0-.39.152-.676.466-.866s.704-.276 1.19-.276a3.3 3.3 0 0 1 1.57.381l.19 1.237.999-.124-.19-1.789c-.324-.2-.714-.362-1.18-.495s-.961-.209-1.494-.209c-.704 0-1.351.171-1.951.504s-.895.904-.895 1.722c0 .6.162 1.037.485 1.313.324.286.723.476 1.209.59s.961.209 1.437.295c.476.076.876.209 1.199.381s.485.466.485.895c0 .438-.209.761-.628.971s-.895.314-1.437.314c-.609 0-1.18-.124-1.703-.381l.048-1.018-.961-.105-.238 1.742c.333.219.771.4 1.304.542s1.066.219 1.608.219c.923 0 1.694-.209 2.312-.638.619-.409.933-.999.933-1.741zM48.961 19.856V.386h7.87v19.461h-7.87v.009zm7.042-5.891c0-.609-.162-1.056-.485-1.351s-.714-.495-1.19-.609c-.476-.114-.942-.209-1.408-.285s-.866-.2-1.19-.362c-.324-.162-.485-.447-.485-.856 0-.39.152-.676.466-.866s.704-.276 1.19-.276a3.3 3.3 0 0 1 1.57.381l.19 1.237.999-.124-.19-1.789c-.324-.2-.714-.362-1.18-.495s-.961-.209-1.494-.209c-.704 0-1.351.171-1.951.504s-.895.904-.895 1.722c0 .6.162 1.037.485 1.313.324.286.723.476 1.209.59s.961.209 1.437.295c.476.076.876.209 1.199.381s.485.466.485.895c0 .438-.209.761-.628.971s-.895.314-1.437.314c-.609 0-1.18-.124-1.703-.381l.048-1.018-.961-.105-.238 1.742c.333.219.771.4 1.304.542s1.066.219 1.608.219c.923 0 1.694-.209 2.312-.638.619-.409.933-.999.933-1.741zM60.723 19.856V.386h5.186v19.461h-5.186v.009zm.761-3.673h3.892v-.98h-1.342v-6.68h-2.579v.98h1.38v5.7h-1.342v.98h-.01zm1.218-11.21v1.57h1.313v-1.57h-1.313zM69.802 19.856V.386h8.289v19.461h-8.289v.009zm7.547-6.252-1.037-.228c-.229 1.294-.923 1.941-2.065 1.941-.761 0-1.341-.257-1.741-.771s-.599-1.237-.599-2.151c0-.828.181-1.532.533-2.122s.942-.876 1.761-.876c.628 0 1.18.143 1.637.428l.295 1.294.999-.124-.295-1.846c-.39-.295-.799-.504-1.227-.619s-.895-.171-1.399-.171c-1.189 0-2.093.419-2.683 1.256-.599.837-.895 1.789-.895 2.845 0 1.228.314 2.189.951 2.864.629.685 1.475 1.028 2.532 1.028s1.837-.295 2.331-.876c.495-.59.799-1.209.904-1.875zM5.414 30.486c-.219.4-.542.714-.961.933-.428.219-.933.333-1.523.333H1.227v-5.367H2.93c.59 0 1.104.105 1.523.324s.742.523.961.933c.219.409.324.875.324 1.427 0 .542-.105 1.018-.324 1.418zm-.942.105c.371-.362.552-.866.552-1.523s-.181-1.161-.552-1.523-.904-.542-1.608-.542h-.961v4.13h.961c.704 0 1.237-.181 1.608-.542zM9.268 26.946v1.837h2.037v.533H9.268v1.875h2.265v.561h-2.96v-5.367h2.96v.561H9.268zM17.547 31.066c-.124.219-.305.4-.552.533s-.552.209-.923.209a2.34 2.34 0 0 1-.952-.19 1.76 1.76 0 0 1-.666-.533 1.583 1.583 0 0 1-.286-.771h.742c.019.152.067.305.152.447s.219.266.381.362c.162.095.362.143.6.143.305 0 .542-.076.704-.247s.247-.371.247-.628c0-.219-.057-.4-.171-.533s-.257-.247-.419-.324a6.915 6.915 0 0 0-.685-.257c-.343-.114-.609-.219-.818-.314s-.381-.247-.523-.447c-.143-.2-.219-.457-.219-.78a1.4 1.4 0 0 1 .2-.742c.133-.209.324-.381.581-.495a2.13 2.13 0 0 1 .885-.171c.523 0 .952.124 1.256.381.314.257.485.581.542.98h-.742a1.024 1.024 0 0 0-.324-.561c-.181-.162-.419-.247-.723-.247-.276 0-.504.076-.666.219-.171.143-.247.352-.247.609a.76.76 0 0 0 .162.504c.114.133.247.228.409.305s.39.152.666.247c.343.114.619.219.837.324.209.105.39.257.533.457s.219.476.219.818a1.664 1.664 0 0 1-.2.704zM21.259 26.384v5.367h-.695v-5.367h.695zM28.282 26.794c.428.314.714.733.856 1.266h-.733a1.6 1.6 0 0 0-.638-.78c-.295-.2-.647-.295-1.056-.295-.362 0-.695.086-.98.257s-.514.409-.685.723a2.398 2.398 0 0 0-.247 1.113c0 .438.086.818.247 1.132s.4.561.695.733c.295.171.638.257 1.028.257.333 0 .628-.076.904-.209.276-.143.495-.352.676-.619s.276-.59.314-.952H26.55v-.514h2.693v.638c-.048.428-.181.809-.4 1.161s-.514.619-.885.818c-.371.2-.79.305-1.266.305-.514 0-.971-.114-1.37-.343s-.704-.552-.923-.971c-.219-.409-.333-.885-.333-1.418s.114-1.009.333-1.418.533-.742.923-.971a2.66 2.66 0 0 1 1.361-.352c.647-.019 1.171.133 1.599.438zM36.266 31.752h-.695l-2.788-4.244v4.244h-.695v-5.367h.695l2.788 4.244v-4.244h.695v5.367zM46.277 31.066c-.124.219-.305.4-.552.533s-.552.209-.923.209a2.34 2.34 0 0 1-.952-.19 1.76 1.76 0 0 1-.666-.533 1.572 1.572 0 0 1-.285-.771h.742c.019.152.067.305.152.447s.219.266.381.362c.162.095.362.143.6.143.305 0 .542-.076.704-.247s.247-.371.247-.628c0-.219-.057-.4-.171-.533s-.257-.247-.419-.324a6.915 6.915 0 0 0-.685-.257c-.343-.114-.609-.219-.818-.314s-.381-.247-.523-.447-.219-.457-.219-.78a1.4 1.4 0 0 1 .2-.742c.133-.209.324-.381.581-.495a2.13 2.13 0 0 1 .885-.171c.523 0 .952.124 1.256.381.314.257.485.581.542.98h-.742a1.024 1.024 0 0 0-.324-.561c-.181-.162-.419-.247-.723-.247-.276 0-.504.076-.666.219-.171.143-.247.352-.247.609a.76.76 0 0 0 .162.504c.114.133.247.228.409.305s.39.152.666.247c.343.114.619.219.837.324.209.105.39.257.533.457s.219.476.219.818a1.664 1.664 0 0 1-.2.704zM52.586 26.384v.561h-1.513v4.806h-.704v-4.806h-1.513v-.561h3.73zM55.821 26.384v3.217c0 .523.114.914.352 1.171.238.247.552.381.971.381.409 0 .723-.124.952-.381s.343-.638.343-1.161v-3.217h.695v3.217c0 .733-.181 1.285-.542 1.646-.362.371-.847.552-1.456.552-.6 0-1.085-.181-1.446-.552s-.542-.914-.542-1.646v-3.217h.676v-.01zM66.299 30.486c-.219.4-.542.714-.961.933-.428.219-.933.333-1.523.333h-1.703v-5.367h1.703c.59 0 1.104.105 1.523.324s.742.523.961.933c.219.409.324.875.324 1.427 0 .542-.105 1.018-.324 1.418zm-.932.105c.371-.362.552-.866.552-1.523s-.181-1.161-.552-1.523-.904-.542-1.608-.542h-.961v4.13h.961c.695 0 1.237-.181 1.608-.542zM70.163 26.384v5.367h-.695v-5.367h.695zM76.977 26.67c.4.238.714.561.943.98s.342.895.342 1.418-.114.999-.342 1.418c-.229.419-.543.742-.943.98s-.847.352-1.341.352c-.495 0-.952-.114-1.351-.352s-.723-.561-.952-.98c-.228-.419-.343-.895-.343-1.418s.115-.999.343-1.418c.229-.419.543-.742.952-.98s.856-.352 1.351-.352.942.114 1.341.352zm-2.341.552a1.701 1.701 0 0 0-.685.733 2.398 2.398 0 0 0-.247 1.113c0 .419.085.79.247 1.113s.39.561.685.733c.295.171.619.257.989.257.362 0 .695-.086.99-.257s.523-.419.685-.733c.161-.314.247-.685.247-1.104 0-.428-.086-.799-.247-1.113s-.391-.561-.685-.733a1.923 1.923 0 0 0-.99-.257 1.841 1.841 0 0 0-.989.247z" />
        </symbol>
        <symbol id="logo-4" viewBox="0 0 104 32">
            <path
                d="m15.093 6.37.761-.162c.193 0 .355.041.467.122s.173.162.173.233-.02.183-.051.315c-.03.132-.315 1.492-.843 4.06s-.914 4.487-1.157 5.745c1.178-1.604 2.558-3.573 4.131-5.918s2.497-3.898 2.761-4.669c.081-.244.193-.426.325-.558s.254-.213.355-.233c.101-.02.264-.041.477-.041s.467.051.761.142.447.244.447.467c0 .406-.609 1.594-1.817 3.543s-2.599 4.02-4.162 6.212c-1.563 2.193-2.863 3.928-3.908 5.207-.183.223-.416.345-.68.345s-.548-.051-.843-.142c-.294-.091-.447-.254-.447-.497 0-.761.67-4.436 2.01-11.003-1.147 1.482-2.538 3.553-4.172 6.202-1.705 2.741-2.67 4.446-2.893 5.096-.122.396-.264.629-.426.69a.85.85 0 0 1-.355.071l-.822.091a.796.796 0 0 1-.447-.132c-.132-.091-.203-.183-.203-.284 0-.274.386-1.106 1.147-2.487s1.665-2.883 2.69-4.507c1.025-1.624 2.091-3.197 3.208-4.73s1.979-2.568 2.588-3.086a.605.605 0 0 1 .426-.162l.497.071zM27.294 13.252c.528 0 .792.183.792.538 0 .193-.041.335-.132.426s-.284.386-.579.903a20.726 20.726 0 0 0-.974 1.959c-.355.792-.589 1.472-.69 2.03-.02.071-.03.162-.03.294 0 .386.102.568.315.568s.457-.101.741-.294c.284-.203.538-.406.761-.64.223-.223.436-.457.65-.69s.335-.376.376-.406.102-.051.183-.051c.132 0 .213.102.244.305s.041.406.041.629c0 .223-.02.365-.061.447-.203.396-.64.873-1.33 1.431-.68.558-1.309.832-1.868.832s-.974-.173-1.228-.508a1.856 1.856 0 0 1-.396-1.127c0-.416.071-.771.213-1.086a9.278 9.278 0 0 1-1.979 1.908c-.751.518-1.35.782-1.827.782s-.853-.142-1.157-.426c-.386-.355-.568-.843-.568-1.472s.142-1.259.426-1.898a6.913 6.913 0 0 1 1.107-1.736c.457-.528.964-1.005 1.512-1.431 1.147-.903 2.213-1.35 3.187-1.35.376 0 .68.061.914.183s.386.284.447.467c.162-.254.305-.406.426-.477.091-.081.264-.112.487-.112zm-1.381 1.157c-1.188 0-2.416.66-3.685 1.979-.447.477-.863 1.035-1.249 1.695s-.568 1.107-.568 1.35c0 .244.071.365.213.365.193 0 .731-.386 1.624-1.147s1.482-1.33 1.766-1.695c.325-.406.954-1.259 1.898-2.548z" />
            <path
                d="m35.191 7.75.426.101c.061 0 .122.03.162.091.051.061.071.122.071.173s-.071.203-.223.447c-.152.244-.315.518-.518.822s-.304.477-.315.508c.538-.041.924-.061 1.147-.061s.376.02.467.051c.081.03.183.122.284.264.112.142.203.254.294.325s.132.183.132.325c0 .142-.091.274-.264.365a1.392 1.392 0 0 1-.568.183c-1.614.162-2.497.244-2.66.254-.558.863-1.35 2.203-2.355 4.02s-1.543 2.964-1.604 3.421c-.03.213-.041.376-.041.508 0 .274.142.406.426.406s.599-.112.944-.325c.345-.223.67-.457.954-.711.782-.69 1.198-1.046 1.249-1.046.183 0 .274.315.274.934 0 .335-.152.64-.467.914-.7.599-1.289 1.056-1.766 1.36s-.954.457-1.441.457c-.101 0-.203-.01-.294-.03-.558-.101-.964-.305-1.218-.609-.264-.305-.386-.711-.386-1.218s.152-1.137.457-1.868c.305-.731.68-1.512 1.137-2.335a81.076 81.076 0 0 1 2.243-3.786l-.396.051c-.802.091-1.269.132-1.401.132h-.091c-.203 0-.396-.041-.579-.122s-.284-.183-.284-.294c0-.122.051-.233.152-.345s.162-.203.183-.264c.051-.152.233-.325.548-.508s.548-.284.711-.294l.467-.03c.152-.01.315-.01.497-.02.183-.01.325-.01.426-.02l.934-.041c.579-.873.985-1.441 1.198-1.685.223-.254.345-.386.376-.406s.101-.041.213-.041l.497-.051z" />
            <path
                d="M41.434 17.891c.132 0 .213.101.244.305s.041.406.041.629c0 .223-.02.365-.061.447-.203.386-.639.863-1.32 1.421s-1.33.843-1.939.843c-.376 0-.721-.112-1.046-.335-.315-.223-.477-.619-.477-1.178s.152-1.117.447-1.655c-1.726 2.162-3.066 3.238-4.05 3.238-.386 0-.7-.142-.944-.416s-.355-.558-.355-.863c0-.294.041-.599.122-.914s.173-.599.264-.853c.091-.254.233-.558.416-.924s.325-.629.406-.802c.081-.172.233-.416.436-.751s.457-.792.782-1.36.589-.995.802-1.269c.213-.274.416-.416.619-.416s.376.081.528.244c.152.162.233.305.233.406s-.233.568-.7 1.401c-1.37 2.487-2.061 3.928-2.061 4.345 0 .101.041.152.112.152.335 0 1.167-.721 2.487-2.162s2.091-2.365 2.304-2.771c.213-.406.406-.751.609-1.025.193-.274.345-.447.447-.508.294-.193.68-.294 1.157-.315.081 0 .132 0 .173.01s.091.071.142.173a.635.635 0 0 1 .081.264c-.061.193-.335.711-.832 1.553-.487.843-.761 1.32-.812 1.421-.822 1.695-1.228 2.802-1.228 3.309 0 .294.112.437.335.437.406-.051.893-.376 1.462-.964.213-.213.416-.436.619-.66s.335-.355.376-.386a.245.245 0 0 1 .183-.071z" />
            <path
                d="M44.449 15.485c1.634-1.858 3.035-2.791 4.182-2.791.284 0 .518.081.7.254s.274.386.274.66-.193.721-.579 1.36a22.174 22.174 0 0 1-1.066 1.604c-.173.223-.365.335-.589.335-.213 0-.386-.081-.508-.244s-.183-.345-.183-.558c0-.477.254-1.025.772-1.624l-.02-.02c-.233.02-.792.477-1.705 1.35a67.574 67.574 0 0 0-2.314 2.365c-.629.7-1.32 1.543-2.071 2.548-.213.294-.396.447-.548.447s-.345-.051-.589-.142-.396-.162-.447-.203-.081-.112-.081-.213c0-.091.03-.213.081-.335.051-.132.162-.315.304-.548s.376-.619.68-1.147c.304-.528.772-1.33 1.411-2.396s1.015-1.716 1.147-1.939c.264-.457.477-.792.65-.995.315-.396.842-.589 1.584-.589.162 0 .254.101.254.315 0 .325-.305.944-.903 1.837l-.436.67zM55.645 13.374c0 .457-.183.863-.558 1.208s-.792.518-1.269.518c-.152 0-.254-.041-.305-.112s-.071-.173-.071-.284.01-.233.041-.345c-.254.081-.528.213-.832.386s-.68.426-1.127.771-.67.589-.67.761c0 .051.081.081.244.081s.416-.061.751-.173c.335-.112.579-.173.711-.173s.223.01.264.02c.091.051.183.152.294.315.102.162.152.294.152.386s-.091.213-.274.365a2.02 2.02 0 0 1-.609.345 3.228 3.228 0 0 0-.457.183c-1.462.822-2.193 1.38-2.193 1.685 0 .538.457.812 1.38.812.589 0 1.188-.183 1.776-.558.508-.315.964-.64 1.37-.974.406-.325.66-.528.771-.609s.193-.112.244-.112c.183 0 .274.203.274.609s-.02.67-.071.792c-.051.132-.183.284-.416.477-1.482 1.208-2.893 1.817-4.213 1.817-.711 0-1.269-.101-1.695-.294-.782-.355-1.167-.893-1.167-1.624 0-.954.66-1.685 1.99-2.172-.264-.122-.436-.264-.508-.457-.081-.183-.112-.477-.112-.883s.193-.832.568-1.289a4.432 4.432 0 0 1 1.391-1.117c1.218-.66 2.314-.985 3.269-.985.233 0 .457.051.7.162s.355.264.355.467zM79.338 6.309h.132c.041 0 .071 0 .082.01s.02.01.041.02c.02 0 .03.01.05.03.031.03.081.061.142.091.081.061.122.132.122.213s-.081.254-.243.518c-.163.264-.579.903-1.259 1.939a223.734 223.734 0 0 0-4.171 6.618c-2.122 3.533-3.198 5.309-3.218 5.329s-.03.041-.041.061c-.01.041-.03.061-.081.061l-.142-.03-.284.071-.162-.03-.173.03h-.061l-.579.081c-.345 0-.518-.122-.518-.355 0-.101.031-.223.091-.365.213-.508 1.299-2.345 3.248-5.532-1.279.03-2.548.051-3.797.051l-2.233-.01a126.86 126.86 0 0 0-1.512 2.507c-1.381 2.365-2.111 3.553-2.203 3.573s-.162.041-.223.041-.112-.03-.152-.102c-.051-.061-.081-.101-.102-.101s-.051.01-.112.041a.508.508 0 0 1-.244.041l-.244-.01-.091-.061c-.01 0-.02.01-.031.03s-.041.03-.081.03c-.294 0-.447-.122-.447-.376 0-.162.061-.386.173-.66.122-.274.274-.568.467-.883s.68-1.076 1.482-2.264a105.997 105.997 0 0 0 1.188-1.797c-.132-.01-.284-.01-.457-.02-.355 0-.599-.01-.751-.041-.396-.071-.67-.396-.812-.975-.081-.284-.112-.467-.101-.558 0-.183.081-.284.244-.284l.274.071c.142.01.467.02.995.051s.903.041 1.137.041l.589-.02a130.24 130.24 0 0 1 3.238-4.801c-.914.751-1.929 1.127-3.045 1.127-.528 0-.985-.122-1.36-.376-.386-.254-.568-.579-.568-.964s.142-.69.436-.924c.294-.223.568-.335.832-.335s.396.041.396.122c0 .03-.041.061-.112.091-.071.041-.112.071-.112.101 0 .112.122.213.365.294s.518.132.822.132.67-.091 1.117-.264c.447-.173.903-.406 1.38-.68a33.15 33.15 0 0 0 1.584-.964c.223-.112.426-.162.629-.162s.335.02.426.071c.092.041.152.091.193.132s.091.101.132.173c.05.071.092.132.142.162.041.041.071.081.071.132s-.031.122-.081.233c-.051.101-.315.528-.792 1.269s-1.096 1.685-1.847 2.832-1.299 1.99-1.644 2.538c1.858 0 3.857-.03 6.009-.101 2.619-4.131 4-6.293 4.141-6.497s.275-.335.396-.396.264-.091.437-.091l.883.071zM82.728 13.232c.213 0 .427.091.639.284.223.193.325.477.325.863s-.132.883-.406 1.502a10.035 10.035 0 0 1-1.116 1.878 16.324 16.324 0 0 1-1.553 1.787 8.257 8.257 0 0 1-1.828 1.37c-.659.355-1.248.538-1.786.538s-.964-.173-1.289-.508c-.325-.335-.487-.802-.487-1.401s.152-1.269.447-1.99c.294-.731.67-1.37 1.137-1.929s.964-1.056 1.513-1.502c1.126-.914 2.121-1.36 2.974-1.36.386 0 .67.091.863.284.071.061.101.122.101.162v.061c.112-.041.264-.041.467-.041zm-1.045 1.38h-.071c-.244 0-.365-.173-.365-.528-.508.162-1.035.457-1.594.873s-1.056.914-1.493 1.482c-.893 1.137-1.34 2.101-1.35 2.883 0 .386.142.579.426.579s.711-.193 1.269-.558 1.116-.903 1.675-1.604c.548-.69.964-1.299 1.239-1.807s.416-.853.416-1.046c-.01-.183-.061-.274-.152-.274zM83.468 21.22l-.507-.02h-.183c-.071-.02-.142-.061-.223-.122s-.142-.112-.183-.132c-.041-.02-.061-.081-.061-.152s.031-.203.081-.376c1.35-2.974 2.66-5.36 3.928-7.136.142-.193.365-.345.671-.447s.609-.152.903-.152c.173 0 .264.132.264.406a.872.872 0 0 1-.081.305c-.05.132-.193.335-.416.629s-.487.629-.792.995a12.34 12.34 0 0 0-.518.65c.954-.985 1.807-1.716 2.579-2.203.772-.477 1.32-.721 1.665-.721s.609.102.791.294c.183.193.275.406.275.629s-.021.416-.051.558c-.03.152-.091.305-.172.467s-.152.305-.213.416a4.614 4.614 0 0 1-.294.447c-.142.183-.233.315-.284.386s-.162.203-.324.396a5.745 5.745 0 0 0-.265.325c.193-.193.467-.477.812-.863s.64-.7.883-.954c.244-.254.538-.548.904-.873s.7-.589 1.005-.782c.751-.467 1.513-.711 2.284-.711.264 0 .487.081.67.254s.274.365.274.599c0 .234-.284.792-.843 1.665s-1.126 1.756-1.685 2.639c-.558.883-.843 1.441-.843 1.675 0 .315.061.508.173.568.122.061.264.081.426.071s.406-.122.7-.325a5.82 5.82 0 0 0 .802-.629c.385-.345.731-.68 1.066-1.005a.337.337 0 0 1 .233-.091c.132 0 .213.101.244.305s.041.406.041.629c0 .223-.021.365-.061.447-.203.386-.649.863-1.33 1.431-.691.558-1.35.843-1.979.843-.082 0-.132 0-.163-.01-.71-.071-1.207-.264-1.482-.589s-.406-.711-.406-1.147.152-.985.457-1.614c.305-.629.63-1.208.995-1.715s.691-.974.995-1.391c.305-.416.457-.639.457-.67s-.031-.051-.082-.051c-.213 0-.69.345-1.441 1.046a40.535 40.535 0 0 0-3.288 3.431 79.365 79.365 0 0 0-1.726 2.213c-.102.142-.275.213-.498.213s-.457-.041-.7-.132c-.243-.091-.365-.203-.365-.335 0-.071.548-1.046 1.654-2.923s1.655-2.903 1.655-3.066c0-.172-.102-.254-.304-.254s-.629.305-1.269.914c-1.756 1.675-3.117 3.35-4.081 5.004-.06.102-.183.254-.365.457s-.345.284-.406.284z" />
            <path
                d="M103.598 13.374c0 .457-.183.863-.558 1.208s-.792.518-1.269.518c-.152 0-.253-.041-.304-.112s-.071-.173-.071-.284.011-.233.041-.345c-.253.081-.528.213-.832.386s-.681.426-1.127.771-.67.589-.67.761c0 .051.081.081.244.081s.416-.061.751-.173.579-.173.71-.173c.132 0 .223.01.265.02.091.051.182.152.294.315.101.162.152.294.152.386s-.092.213-.275.365-.385.264-.609.345a3.228 3.228 0 0 0-.457.183c-1.461.822-2.192 1.38-2.192 1.685 0 .538.457.812 1.38.812.589 0 1.188-.183 1.776-.558.508-.315.965-.64 1.371-.974.406-.325.659-.528.771-.609s.193-.112.244-.112c.183 0 .274.203.274.609s-.02.67-.071.792c-.05.132-.182.284-.416.477-1.482 1.208-2.893 1.817-4.213 1.817-.71 0-1.269-.101-1.695-.294-.781-.355-1.167-.893-1.167-1.624 0-.954.66-1.685 1.99-2.172-.264-.122-.437-.264-.508-.457-.081-.183-.112-.477-.112-.883s.193-.832.568-1.289a4.42 4.42 0 0 1 1.391-1.117c1.218-.66 2.315-.985 3.268-.985.234 0 .457.051.7.162s.356.264.356.467zM.699 24.032a52.72 52.72 0 0 0 8.161 2.639 61.945 61.945 0 0 0 8.354 1.482c1.401.193 2.812.213 4.202.345 1.411.01 2.812.122 4.213.041l2.101-.051c.7-.01 1.401-.101 2.101-.142.7-.061 1.401-.091 2.091-.183l2.081-.294c2.791-.305 5.502-.954 8.202-1.736 2.731-.751 5.309-1.746 8.039-2.781 2.791-1.025 5.816-1.695 8.882-1.37 1.513.193 3.035.68 4.273 1.573 1.249.883 2.142 2.142 2.71 3.461-.853-1.178-1.918-2.142-3.147-2.741s-2.578-.843-3.918-.802c-2.71.041-5.38.944-7.887 2.081a67.25 67.25 0 0 1-8.09 3.34c-2.802.903-5.695 1.624-8.628 1.99-5.837.771-11.816.782-17.581-.386-2.893-.528-5.715-1.35-8.445-2.396-2.71-1.086-5.36-2.355-7.715-4.07zM97.77 7.131a46.67 46.67 0 0 0-6.903-2.304 54.168 54.168 0 0 0-7.044-1.36c-1.178-.183-2.375-.223-3.553-.365-1.188-.03-2.365-.152-3.553-.102-.589.01-1.188.01-1.776 0-.589 0-1.188.061-1.776.081-.589.041-1.188.051-1.776.112l-1.766.213c-2.365.193-4.659.68-6.953 1.279-2.325.558-4.527 1.35-6.872 2.142-2.406.802-5.014 1.289-7.633.924-1.289-.213-2.588-.67-3.614-1.482-1.046-.802-1.756-1.898-2.193-3.045.721 1.005 1.614 1.827 2.639 2.335s2.152.721 3.279.711c2.274 0 4.527-.731 6.659-1.644 2.172-1.035 4.558-1.949 6.933-2.7 2.396-.721 4.893-1.269 7.39-1.533 4.984-.528 10.08-.406 14.963.751 2.446.518 4.831 1.309 7.115 2.284 2.294.995 4.507 2.152 6.436 3.705z" />
        </symbol>
        <symbol id="logo-3" viewBox="0 0 164 44">
            <path fill-rule="evenodd" clip-rule="evenodd"
                d="M8.58239 43.5479H35.4007C39.8078 43.5479 43.3795 39.9762 43.3795 35.569V8.7508C43.3795 4.34365 39.8078 0.771912 35.4007 0.771912H8.58239C4.17524 0.771912 0.603516 4.34365 0.603516 8.7508V35.569C0.603516 39.9762 4.17524 43.5479 8.58239 43.5479ZM30.8494 25.883C30.8494 24.6238 30.4619 23.51 29.6991 22.5535C28.9364 21.597 27.9072 20.9674 26.5875 20.6526C27.7135 20.3862 28.6216 19.8293 29.3117 18.9575C30.0019 18.0858 30.353 17.0082 30.353 15.7006C30.353 13.9329 29.7476 12.5647 28.5489 11.6082C27.3503 10.6517 25.6552 10.1674 23.4516 10.1674H13.6445V31.7794H23.6938C25.9942 31.7794 27.7619 31.2467 28.9969 30.2175C30.2319 29.1884 30.8494 27.7355 30.8494 25.883ZM18.8629 19.0059H22.2893C24.1055 19.0059 25.0135 18.2311 25.0135 16.6813C25.0135 15.1315 24.0812 14.3566 22.2288 14.3566H18.8629V19.0059ZM25.4978 25.1566C25.4978 24.3817 25.2436 23.7763 24.7351 23.3405C24.2265 22.9046 23.5001 22.6866 22.5678 22.6866H18.875V27.5418H22.6041C24.5292 27.5297 25.4978 26.7427 25.4978 25.1566Z" />
            <path
                d="M68.1648 31.7798L63.4912 23.6193H62.3047V31.7798H57.0742V10.1678H65.9975C67.7047 10.1678 69.1576 10.4584 70.332 11.0516C71.5186 11.6449 72.4024 12.4561 72.9957 13.4853C73.5889 14.5144 73.8795 15.6888 73.8795 17.0207C73.8795 18.5947 73.4436 19.9265 72.584 21.0283C71.7123 22.1301 70.4652 22.8807 68.8064 23.2924L73.94 31.7919H68.1648V31.7798ZM62.3047 20.0476H65.5374C66.5786 20.0476 67.3414 19.8175 67.8257 19.3574C68.31 18.8973 68.5643 18.2193 68.5643 17.3234C68.5643 16.4637 68.31 15.7978 67.8136 15.3014C67.3172 14.8171 66.5544 14.5628 65.5374 14.5628H62.3047V20.0476Z" />
            <path
                d="M97.5377 27.8449H89.4377L88.0938 31.7919H82.5969L90.5153 10.3373H96.5328L104.451 31.7919H98.8938L97.5377 27.8449ZM96.1938 23.8615L93.5059 15.9189L90.7817 23.8615H96.1938Z" />
            <path
                d="M133.303 31.7798H128.073L119.331 18.5099V31.7798H114.101V10.1678H119.331L128.073 23.5588V10.1678H133.303V31.7798Z" />
            <path
                d="M162.628 26.5736C161.72 28.2081 160.412 29.4915 158.717 30.4117C157.01 31.3318 155.012 31.7919 152.712 31.7919H144.551V10.1799H152.712C155.036 10.1799 157.046 10.6279 158.729 11.5239C160.424 12.4198 161.72 13.679 162.628 15.3135C163.536 16.9481 163.984 18.8126 163.984 20.9435C163.984 23.0503 163.524 24.9269 162.628 26.5736ZM156.998 25.4839C158.124 24.4063 158.693 22.8808 158.693 20.9314C158.693 18.97 158.124 17.4566 156.998 16.379C155.872 15.3014 154.286 14.7566 152.24 14.7566H149.77V27.1063H152.24C154.286 27.1063 155.872 26.5736 156.998 25.4839Z" />
        </symbol>
        <symbol id="logo-2" viewBox="0 0 32 32">
            <path fill="#ffffff"
                d="M15.982 31.567c8.656 0 15.673-7.017 15.673-15.673S24.638.221 15.982.221C7.326.221.309 7.238.309 15.894s7.017 15.673 15.673 15.673z" />
            <path
                d="M15.982 31.789C7.219 31.789.088 24.658.088 15.895S7.219.001 15.982.001s15.894 7.131 15.894 15.894-7.131 15.894-15.894 15.894zm0-31.346C7.463.443.531 7.375.531 15.894s6.932 15.451 15.451 15.451 15.451-6.931 15.451-15.451S24.501.443 15.982.443z" />
            <path
                d="M18.217 1.814c.106.009.2.013.275.013l-.009.071c-.124.018-.231.111-.315.288l-1.055 2.111-.031-.004-.027-.004-.67-2.355c-.044-.155-.12-.239-.226-.253l.009-.071c.098.018.226.031.386.049.208.018.364.031.466.031l-.009.071c-.093-.004-.16 0-.2.013s-.062.049-.067.093a.471.471 0 0 0 .027.173l.492 1.801.732-1.472a.91.91 0 0 0 .102-.288c.009-.075-.013-.133-.062-.173s-.129-.062-.235-.075l.009-.071c.129.022.266.04.408.053zM21.197 2.75c-.044 0-.08.018-.106.053s-.058.093-.089.177l-.634 1.685c-.031.084-.049.151-.049.195s.013.08.044.106a.725.725 0 0 0 .169.093l-.027.067a13.597 13.597 0 0 0-.426-.173 7.63 7.63 0 0 0-.439-.155l.027-.067c.084.027.146.04.186.04s.08-.018.106-.053a.692.692 0 0 0 .089-.177l.634-1.685c.031-.084.049-.151.049-.195s-.013-.08-.044-.106a.725.725 0 0 0-.169-.093l.027-.067c.093.04.235.098.43.173.182.071.328.12.435.151l-.027.067a.474.474 0 0 0-.186-.035zM25.144 5.096c-.044-.009-.089.004-.129.031s-.089.08-.142.155l-1.286 1.743-.067-.049.173-2.803-1.14 1.543c-.053.075-.089.137-.106.186s-.009.093.013.137a.584.584 0 0 0 .151.155l-.044.058a6.51 6.51 0 0 0-.293-.231 3.269 3.269 0 0 0-.279-.191l.044-.058a.417.417 0 0 0 .173.08.17.17 0 0 0 .129-.031.72.72 0 0 0 .142-.155l1.047-1.419c.053-.075.089-.133.102-.173s.009-.08-.013-.115a.683.683 0 0 0-.137-.138l.044-.058a2.7 2.7 0 0 0 .266.208c.089.067.164.12.235.16l-.142 2.35.922-1.251c.053-.075.093-.138.106-.186s.009-.093-.013-.137a.519.519 0 0 0-.151-.155l.044-.058c.067.058.164.133.293.231.115.084.208.151.279.191l-.044.058a.54.54 0 0 0-.177-.08zM26.63 7.096c.115-.084.235-.177.364-.293a51.298 51.298 0 0 0 1.184 1.668 7.13 7.13 0 0 0-.395.248 4.096 4.096 0 0 0-.235.182l-.049-.067c.142-.124.239-.226.297-.302s.08-.155.075-.239c-.004-.084-.058-.186-.142-.31l-.115-.16-1.681 1.197c-.08.058-.137.111-.164.151s-.035.089-.018.142c.013.049.053.12.111.208l-.058.044a8.21 8.21 0 0 0-.302-.439c-.142-.2-.248-.341-.319-.43l.058-.044c.067.084.12.142.164.173s.089.04.137.027a.675.675 0 0 0 .195-.106l1.681-1.197-.115-.16c-.089-.124-.169-.2-.244-.235s-.16-.04-.248-.009a2.45 2.45 0 0 0-.381.182l-.049-.067c.067-.035.146-.089.248-.164zM27.481 13.251l-.071.022a9.034 9.034 0 0 0-.275-.812l.071-.022a.64.64 0 0 0 .093.177.1.1 0 0 0 .115.022.465.465 0 0 0 .146-.093l.492-.404-.279-.829-.412-.018c-.133-.009-.235 0-.306.027s-.115.067-.133.124a.513.513 0 0 0 .027.244l-.071.022c-.035-.133-.08-.266-.124-.399a2.73 2.73 0 0 0-.098-.253l.071-.022c.062.106.195.164.39.168l2.359.106.018.053-1.88 1.565c-.115.111-.16.213-.133.319zm1.539-1.885-1.162-.049.262.781.9-.732zM27.805 16.644c.044-.018.067-.04.067-.071 0-.018-.004-.031-.013-.044s-.027-.04-.053-.075c-.067-.084-.115-.173-.151-.262s-.053-.191-.053-.302a1.288 1.288 0 0 1 .142-.643c.102-.182.244-.319.439-.417.191-.098.421-.146.692-.151.279-.004.523.04.732.137s.373.231.488.408c.115.177.177.377.177.599 0 .098-.009.186-.027.262s-.044.142-.075.2a1.53 1.53 0 0 1-.124.195c-.022.031-.035.058-.035.075 0 .044.075.075.222.089v.084a12.264 12.264 0 0 0-.834 0v-.084c.129-.022.235-.049.319-.075s.155-.067.217-.115c.084-.071.155-.164.204-.279s.071-.231.071-.355c-.004-.16-.058-.297-.164-.417s-.257-.208-.448-.275a2.102 2.102 0 0 0-.674-.089c-.293.004-.528.04-.714.106s-.319.164-.408.293a.81.81 0 0 0-.124.492.66.66 0 0 0 .12.377.222.222 0 0 0 .089.084.28.28 0 0 0 .115.018l.35-.004a.652.652 0 0 0 .222-.031.151.151 0 0 0 .093-.106.747.747 0 0 0 .027-.235h.071a8.752 8.752 0 0 0 .014.891h-.071c-.004-.058-.018-.098-.031-.12s-.044-.04-.084-.049a.835.835 0 0 0-.2-.009l-.718.013v-.071c.04-.018.089-.027.133-.044zM27.278 20.418a4.602 4.602 0 0 0-.452-.115c.058-.155.142-.417.262-.789.142-.443.244-.781.306-1.007l.071.022a.789.789 0 0 0-.031.191c.004.044.022.075.058.102s.098.053.182.08l1.716.541c.089.027.151.04.195.04s.08-.018.106-.053a.75.75 0 0 0 .084-.173l.071.022c-.08.226-.186.559-.328 1.002-.106.337-.182.581-.217.727a3.641 3.641 0 0 0-.621-.209l.027-.08c.155.031.275.044.355.044s.146-.027.2-.08a.614.614 0 0 0 .137-.257l.089-.288c.027-.084.04-.146.035-.186s-.018-.075-.053-.102a.59.59 0 0 0-.182-.08l-.816-.257-.071.231c-.035.115-.027.204.031.266s.12.106.191.137c.071.031.115.053.133.062l-.027.08a3.611 3.611 0 0 0-.324-.115l-.164-.049a7.32 7.32 0 0 0-.497-.133l.027-.08c.018.004.075.013.173.035.098.018.182.009.248-.027s.111-.102.142-.195l.071-.231-.834-.262c-.089-.027-.151-.04-.195-.04s-.08.018-.102.053a.609.609 0 0 0-.08.177l-.08.253c-.044.146-.062.262-.044.346.013.089.058.16.133.222.075.058.191.124.346.195l-.027.08c-.053-.04-.137-.067-.244-.102zM26.014 25.859c.018-.04.013-.08-.004-.12s-.062-.089-.129-.155l-1.304-1.246c-.067-.062-.12-.102-.16-.12s-.08-.018-.12 0a.584.584 0 0 0-.151.12l-.053-.049c.084-.075.191-.186.328-.324.142-.151.248-.266.315-.341l.053.049a.842.842 0 0 0-.111.155c-.018.04-.013.08.004.12s.062.089.129.155l1.304 1.246c.067.062.12.102.16.12s.08.018.12 0a.584.584 0 0 0 .151-.12l.053.049a5.791 5.791 0 0 0-.328.328 7.065 7.065 0 0 0-.31.341l-.053-.049a.794.794 0 0 0 .106-.16zM22.319 28.565c.027-.04.031-.08.022-.129s-.04-.111-.089-.195l-1.1-1.867.071-.044 2.51 1.255-.971-1.65c-.049-.08-.089-.137-.129-.169s-.084-.044-.133-.04a.6.6 0 0 0-.2.075l-.04-.062c.08-.035.186-.098.324-.177.124-.075.217-.133.284-.182l.035.062a.406.406 0 0 0-.142.129c-.027.04-.031.08-.022.129s.04.111.089.195l.896 1.521c.044.08.084.133.12.16s.071.04.115.031a.75.75 0 0 0 .177-.071l.035.062a5.022 5.022 0 0 0-.536.315l-2.107-1.051.789 1.339c.049.08.089.137.129.169.035.031.08.044.133.04s.12-.031.204-.075l.035.062c-.08.035-.186.098-.324.177a4.199 4.199 0 0 0-.284.182l-.035-.062a.698.698 0 0 0 .142-.129zM19.88 29.146c.031.137.071.288.124.448-.2.035-.532.106-1.002.204-.47.102-.798.177-.993.226a4.947 4.947 0 0 0-.075-.461 2.559 2.559 0 0 0-.075-.288l.08-.018c.058.182.111.31.16.395s.111.137.191.164c.08.027.195.022.341-.009l.191-.04-.435-2.018c-.022-.098-.044-.169-.075-.208s-.067-.067-.12-.071a.815.815 0 0 0-.239.018l-.013-.071a12.965 12.965 0 0 0 1.046-.226l.013.071c-.106.027-.177.053-.222.08s-.071.067-.08.115a.6.6 0 0 0 .018.222l.435 2.018.191-.04c.146-.031.253-.075.315-.133s.098-.133.106-.226a2.136 2.136 0 0 0-.018-.421l.08-.018c.013.071.031.169.058.288zM13.995 27.899c.013-.137.018-.293.018-.466.164.022.439.049.829.084.461.04.812.071 1.051.084l-.004.071c-.089-.004-.151 0-.191.013s-.071.035-.089.075a.69.69 0 0 0-.04.195l-.16 1.796c-.009.089-.004.155.004.2s.035.075.075.093c.04.018.102.035.186.044l-.004.071a39.597 39.597 0 0 0-1.805-.16c.031-.155.053-.297.062-.426.009-.093.013-.169.009-.226l.084.009c.004.16.013.275.035.355a.27.27 0 0 0 .12.177c.058.04.155.067.279.075l.302.027c.089.009.151.004.191-.004s.071-.035.089-.075a.69.69 0 0 0 .04-.195l.075-.851-.239-.022c-.12-.009-.204.018-.253.089a.623.623 0 0 0-.093.217 2.555 2.555 0 0 0-.031.146l-.084-.009c.018-.12.031-.231.044-.341l.013-.173c.009-.124.018-.293.027-.514l.084.009c0 .018.004.075.004.177.004.102.027.182.08.235.049.058.124.089.222.098l.239.022.075-.869a.73.73 0 0 0-.004-.2c-.009-.04-.035-.071-.075-.089s-.102-.031-.186-.04l-.266-.022a.763.763 0 0 0-.35.031c-.08.031-.142.093-.186.177s-.08.213-.115.381l-.084-.009c0-.067.009-.155.022-.262zM10.505 26.254a.378.378 0 0 1 .222.035c.093.04.155.098.191.173.035.08.04.191.018.337l-.067.364a3.072 3.072 0 0 0-.04.302c-.004.071.013.137.044.195s.089.102.173.137l.319.133.324-.772c.035-.084.053-.146.058-.191s-.013-.08-.044-.111a.57.57 0 0 0-.164-.098l.027-.067c.102.049.239.111.421.186.191.08.337.137.435.169l-.027.067a.855.855 0 0 0-.186-.049c-.044 0-.08.013-.106.049a.59.59 0 0 0-.098.173l-.696 1.663c-.035.084-.053.146-.058.191s.013.08.044.111a.663.663 0 0 0 .164.102l-.027.067a11.14 11.14 0 0 0-.404-.182c-.089-.035-.182-.075-.288-.12s-.177-.071-.217-.089c-.173-.075-.31-.16-.412-.262s-.16-.208-.186-.324a.524.524 0 0 1 .035-.337c.035-.089.093-.169.173-.239s.182-.124.306-.151a.992.992 0 0 1 .439.018l-.04-.022a.715.715 0 0 1-.208-.177.41.41 0 0 1-.084-.195.79.79 0 0 1 .009-.266l.062-.377c.013-.075.022-.133.022-.177s-.004-.08-.018-.106a.105.105 0 0 0-.067-.058c-.035-.018-.071-.018-.102-.009s-.075.031-.133.062l-.035-.058a.734.734 0 0 1 .222-.098zm.222 1.579c-.106.013-.191.053-.257.12s-.124.155-.173.27c-.075.182-.093.341-.044.47s.168.235.368.319a.355.355 0 0 0 .168.04c.04 0 .075-.018.106-.053s.062-.093.093-.173l.346-.825-.226-.093a.757.757 0 0 0-.381-.075zM7.046 26.857c.04.013.08.004.115-.018s.084-.071.142-.142l1.113-1.419c.058-.071.093-.129.106-.169s.009-.08-.013-.115a.748.748 0 0 0-.133-.142l.044-.058c.084.075.2.173.355.293.164.129.288.222.373.279l-.044.058a.52.52 0 0 0-.168-.093.12.12 0 0 0-.115.018.708.708 0 0 0-.142.142L7.566 26.91c-.058.071-.093.129-.106.169s-.009.08.013.115a.748.748 0 0 0 .133.142l-.044.058c-.075-.067-.195-.164-.359-.297a9.913 9.913 0 0 0-.368-.275l.044-.058c.075.049.129.08.168.093zM4.181 23.7c-.018-.2.027-.399.129-.59.106-.195.266-.368.488-.532.217-.155.435-.257.661-.297s.435-.027.63.049c.195.075.359.204.488.386.138.186.213.381.231.581s-.027.399-.129.59a1.647 1.647 0 0 1-.488.532 1.63 1.63 0 0 1-.661.297c-.222.04-.435.027-.63-.049s-.359-.204-.488-.381a1.18 1.18 0 0 1-.231-.585zm.665.789c.155.031.333.018.528-.044s.39-.164.594-.315c.204-.146.364-.306.475-.474a.99.99 0 0 0 .186-.497.625.625 0 0 0-.111-.421.588.588 0 0 0-.373-.235c-.155-.031-.333-.018-.528.044s-.39.164-.594.31a1.795 1.795 0 0 0-.475.479 1.036 1.036 0 0 0-.191.497.597.597 0 0 0 .488.656zM4.522 18.36c.053.04.093.106.12.195a.338.338 0 0 1-.009.257c-.035.08-.12.155-.248.231l-.324.182c-.111.067-.195.12-.253.164s-.098.098-.12.16a.352.352 0 0 0 .004.222l.102.333.798-.248c.089-.027.146-.053.182-.08s.053-.062.058-.102a.656.656 0 0 0-.031-.191l.071-.022c.027.106.067.257.129.444.062.2.111.346.146.439l-.071.022c-.031-.084-.058-.142-.084-.173s-.062-.053-.106-.053a.579.579 0 0 0-.195.04l-1.721.532c-.089.027-.146.053-.182.08s-.053.062-.058.102a.638.638 0 0 0 .031.191l-.071.022a6.046 6.046 0 0 0-.12-.426c-.027-.089-.062-.191-.098-.297l-.075-.222c-.058-.182-.075-.341-.062-.483s.058-.257.129-.35a.544.544 0 0 1 .279-.191.66.66 0 0 1 .608.115c.106.08.195.195.271.35l-.004-.044c-.013-.111-.018-.2 0-.275s.049-.137.093-.191a.894.894 0 0 1 .213-.164l.328-.195c.067-.035.12-.071.151-.098s.058-.053.071-.08a.123.123 0 0 0 .004-.089c-.013-.04-.031-.067-.058-.084s-.071-.04-.133-.062l.022-.067a.752.752 0 0 1 .213.106zm-1.059 1.189c-.075-.071-.164-.111-.257-.12s-.2.004-.319.044c-.191.058-.319.151-.39.271s-.071.284-.009.483c.022.071.049.124.075.155s.067.049.111.049a.813.813 0 0 0 .191-.035l.851-.266-.071-.235a.733.733 0 0 0-.182-.346zM4.181 14.152c.168-.075.271-.217.315-.43.013-.08.013-.16-.009-.235a.438.438 0 0 0-.381-.315c-.093-.018-.177-.009-.257.022s-.16.08-.235.146a3.18 3.18 0 0 0-.262.266 3.073 3.073 0 0 1-.293.297c-.084.075-.177.129-.279.169s-.217.044-.346.022c-.133-.027-.244-.075-.324-.155s-.137-.173-.164-.284a.823.823 0 0 1-.004-.35c.013-.075.031-.133.053-.186s.044-.093.071-.124c.027-.031.053-.067.089-.102a.33.33 0 0 0 .075-.111c.004-.022-.004-.04-.027-.058s-.062-.031-.115-.049l.013-.08c.137.035.377.089.727.155l-.013.08a1.051 1.051 0 0 0-.355.018.578.578 0 0 0-.288.146.506.506 0 0 0-.155.297c-.018.084-.013.16.009.235s.062.133.115.182a.462.462 0 0 0 .537.04c.094-.062.182-.142.266-.235.084-.093.137-.155.169-.186.124-.133.226-.235.31-.31s.177-.129.279-.164a.65.65 0 0 1 .333-.018.69.69 0 0 1 .355.168c.089.089.146.191.177.315s.031.257.004.399a.834.834 0 0 1-.226.466.33.33 0 0 0-.075.111c-.004.022.004.04.027.058s.062.035.115.049l-.013.08a13.2 13.2 0 0 0-.851-.173l.013-.08c.248.022.452 0 .621-.075zM3.303 10.413a3.76 3.76 0 0 0-.426-.191c.098-.173.262-.475.483-.905.222-.426.377-.727.461-.909.146.093.279.173.399.235.106.058.2.098.271.129l-.04.075a2.01 2.01 0 0 0-.404-.129c-.093-.018-.177 0-.248.044s-.142.133-.208.266l-.089.177 1.832.953c.089.049.16.071.208.075s.093-.009.133-.044a.813.813 0 0 0 .137-.195l.067.035a13.571 13.571 0 0 0-.496.949l-.067-.035a.896.896 0 0 0 .08-.222c.009-.053-.004-.098-.04-.137s-.093-.08-.182-.129l-1.832-.958-.093.173c-.071.133-.102.239-.098.324s.04.16.106.226c.067.067.177.155.337.257l-.04.075a7.008 7.008 0 0 0-.253-.142zM6.434 5.317c.075-.075.137-.146.182-.2l.053.053c-.027.04-.04.098-.035.164s.022.16.058.271l.404 1.202.47.466c.067.062.115.106.155.124s.08.018.12 0a.765.765 0 0 0 .155-.115l.053.053a9.39 9.39 0 0 0-.652.656l-.053-.053c.058-.067.098-.115.115-.155s.018-.08-.004-.12a.623.623 0 0 0-.124-.155l-.39-.386-1.481-.435c-.089-.027-.155-.035-.2-.031s-.075.018-.098.04l-.053-.053c.071-.062.151-.133.231-.217.164-.168.284-.288.35-.368l.053.053c-.12.12-.146.213-.08.279a.282.282 0 0 0 .115.062l1.246.386-.328-.98c-.049-.142-.098-.239-.151-.288-.049-.049-.102-.062-.16-.044s-.124.062-.204.137l-.053-.053c.106-.098.204-.195.306-.293zM9.117 3.53c-.027.031-.04.071-.031.115s.031.106.075.186l.856 1.588a.63.63 0 0 0 .115.164c.031.031.071.04.111.035s.102-.031.177-.071l.235-.129c.133-.071.226-.146.275-.222s.067-.16.053-.262a1.599 1.599 0 0 0-.124-.399l.075-.04c.031.071.075.16.133.266.067.12.146.253.244.399-.146.071-.395.2-.736.386-.408.222-.718.39-.922.51l-.035-.062c.075-.044.129-.084.155-.115s.04-.071.031-.115a.688.688 0 0 0-.075-.186L8.864 3.99a.63.63 0 0 0-.115-.164.129.129 0 0 0-.111-.035.573.573 0 0 0-.182.067l-.031-.067c.093-.04.231-.111.412-.213.173-.093.306-.168.399-.226l.035.062a.768.768 0 0 0-.155.115zM14.518 3.814c.027.133.067.284.115.452-.164.027-.435.075-.816.151-.457.089-.798.16-1.033.213l-.013-.071a.577.577 0 0 0 .182-.067.132.132 0 0 0 .062-.098.732.732 0 0 0-.018-.2l-.346-1.769c-.018-.089-.035-.151-.062-.191s-.053-.062-.098-.067a.598.598 0 0 0-.191.009l-.013-.071c.235-.04.581-.102 1.033-.191.35-.071.599-.12.741-.155.013.16.035.302.058.426.018.093.035.164.053.217l-.08.018c-.049-.151-.093-.262-.133-.333s-.098-.115-.164-.137a.602.602 0 0 0-.293.004l-.297.058c-.084.018-.146.035-.182.058s-.058.053-.067.098a.732.732 0 0 0 .018.2l.164.843.235-.049c.12-.022.191-.075.217-.155s.035-.155.031-.231c-.004-.075-.009-.124-.009-.146l.08-.018c.013.12.031.231.053.337l.035.168c.022.12.062.288.12.501l-.08.018c-.004-.018-.022-.071-.053-.169s-.075-.164-.142-.204a.326.326 0 0 0-.239-.031l-.235.044.168.856a.682.682 0 0 0 .058.191.143.143 0 0 0 .098.067c.04.004.106 0 .191-.018l.262-.053c.146-.031.257-.071.328-.124s.111-.129.129-.222c.018-.093.018-.226.004-.399l.08-.018c.013.067.027.151.049.257zM11.53 20.75c-.204-.275-.381-.577-.537-.909s-.279-.67-.373-1.016c-.204-1.521-.208-2.998-.018-4.43s.501-2.843.927-4.235c.071-.155.226-.231.466-.231s.475.053.714.16c.239.106.435.248.59.426s.191.364.106.554a7.2 7.2 0 0 0-.39 1.149 28.32 28.32 0 0 0-.683 3.424 26.72 26.72 0 0 0-.195 1.827c-.04.581-.049 1.109-.027 1.579s.093.843.213 1.113c.559-.749 1.069-1.526 1.534-2.328s.9-1.614 1.308-2.444c.408-.825.798-1.659 1.166-2.506.368-.843.732-1.676 1.087-2.497a33.4 33.4 0 0 0 .528-1.317c.173-.466.399-.86.687-1.193.12-.106.213-.142.275-.106.067.035.111.102.133.204s.035.208.035.319v.257c-.084.545-.155 1.087-.213 1.623s-.186 1.051-.373 1.552c-.31.785-.625 1.561-.953 2.337-.328.772-.679 1.534-1.051 2.284s-.781 1.477-1.211 2.182c-.435.71-.905 1.384-1.419 2.022-.404.51-.807.781-1.202.812-.412.035-.781-.173-1.126-.612zM18.873 18.737c-.239-.333-.474-.67-.705-1.016s-.346-.723-.346-1.14c0-.461.133-.9.399-1.313.266-.408.572-.741.918-.989.142-.093.288-.173.435-.231s.306-.053.475.018c.071.035.146.062.222.08s.146.04.204.062c.058.022.124.058.195.106s.106.111.106.195c0 .333.009.603.027.812s.044.386.08.537c.035.151.071.279.106.39.035.115.071.235.106.364a.513.513 0 0 1-.018.302c-.035.084-.124.093-.266.035-.262-.093-.457-.284-.581-.572s-.217-.545-.275-.785c-.013-.049-.04-.129-.089-.248s-.075-.204-.089-.248c-.093-.022-.208.009-.337.098a1.3 1.3 0 0 0-.541.901.973.973 0 0 0 .115.608c.049.071.115.16.204.257.089.102.177.204.266.31s.177.213.266.31c.089.098.164.182.222.239.071.071.12.111.142.115s.084-.009.177-.044c.12-.058.302-.137.545-.231s.501-.191.767-.284c.266-.093.523-.173.767-.239s.43-.098.563-.098c.084 0 .142.031.177.089.035.035.031.084-.018.142s-.111.12-.186.177c-.075.058-.16.111-.239.16-.084.049-.137.075-.16.089-.204.12-.457.253-.767.404-.31.146-.577.293-.803.435-.022.022-.067.049-.133.071s-.115.049-.151.071c.142.319.244.599.302.829s.08.452.062.67c-.018.213-.062.43-.133.652s-.169.475-.284.758c-.169.275-.337.537-.51.785s-.364.475-.581.679a2.57 2.57 0 0 1-.696.479c-.248.12-.523.177-.82.177-.169 0-.328-.022-.483-.062s-.284-.129-.39-.257c-.275-.297-.426-.621-.461-.971s-.004-.696.089-1.042c.071-.213.16-.408.266-.59.262-.452.55-.834.865-1.149.319-.31.648-.612.993-.896zm.608.803c-.133.133-.31.319-.537.563s-.435.51-.634.794c-.195.284-.355.568-.479.847s-.155.519-.098.723c.239-.106.483-.284.732-.528s.47-.51.661-.803c.191-.293.324-.581.399-.865.075-.288.062-.532-.044-.732z" />
            <path
                d="M15.982 25.957c-5.548 0-10.063-4.515-10.063-10.063S10.434 5.831 15.982 5.831c5.548 0 10.063 4.515 10.063 10.063S21.53 25.957 15.982 25.957zm0-19.682c-5.304 0-9.619 4.315-9.619 9.619s4.315 9.619 9.619 9.619c5.304 0 9.619-4.315 9.619-9.619s-4.315-9.619-9.619-9.619z" />
        </symbol>
        <symbol id="logo-1" viewBox="0 0 96 32">
            <path
                d="M8.461.71v.135L7.9.98v5.98l.561.135v.135H5.803v-.135l.561-.135V1.863L4.163 7.324h-.28L1.028 1.863v4.952l.747.28v.135H0v-.135l.747-.28V.981L.186.846V.711h1.163c.177 0 .332.021.457.062s.249.093.343.166c.104.073.187.156.26.249s.135.208.197.322l2.035 3.893L6.198 1.51a1.36 1.36 0 0 1 .176-.343c.062-.093.145-.176.239-.249s.208-.125.343-.156c.135-.031.301-.052.509-.052h.997zM11.783 2.444c.384 0 .737.052 1.038.166s.561.28.779.488c.218.218.374.478.488.779s.166.654.166 1.038-.052.737-.166 1.038-.28.561-.488.779c-.218.218-.478.374-.779.488s-.654.166-1.038.166-.737-.052-1.038-.166-.561-.28-.779-.488c-.218-.218-.374-.478-.488-.779s-.166-.654-.166-1.038.052-.737.166-1.038.28-.561.488-.779c.218-.218.478-.374.779-.488s.644-.166 1.038-.166zm0 4.765a.585.585 0 0 0 .322-.104c.104-.073.197-.187.28-.363s.156-.405.208-.696c.052-.301.083-.675.083-1.121 0-.457-.031-.831-.083-1.121s-.125-.529-.208-.696-.176-.291-.28-.363a.54.54 0 0 0-.322-.104.585.585 0 0 0-.322.104c-.104.073-.197.187-.28.363s-.156.405-.208.696a6.684 6.684 0 0 0-.083 1.121c0 .457.031.831.083 1.121s.125.529.208.696a.96.96 0 0 0 .28.363.626.626 0 0 0 .322.104zM18.79.71c.561 0 .841.28.841.841V6.97l.561.135v.135h-.841c-.228 0-.405-.031-.54-.104s-.249-.156-.322-.239a1.035 1.035 0 0 1-.208-.353 1.63 1.63 0 0 1-.311.426c-.104.104-.249.197-.426.291s-.384.135-.623.135c-.27 0-.519-.052-.747-.156-.239-.104-.436-.26-.602-.467s-.311-.467-.405-.768c-.104-.311-.145-.664-.145-1.08s.052-.768.145-1.08c.104-.311.239-.561.426-.768.176-.208.394-.363.644-.467a2.166 2.166 0 0 1 1.287-.104c.135.042.249.083.343.135.114.052.208.114.291.187V1.011l-.561-.135V.741h1.194V.71zm-.654 2.388c-.073-.073-.135-.135-.218-.187-.073-.052-.145-.093-.228-.135s-.166-.052-.26-.052c-.114 0-.228.031-.332.093s-.187.166-.27.322a2.517 2.517 0 0 0-.177.664 7.975 7.975 0 0 0-.062 1.111c0 .446.021.799.062 1.08s.093.498.166.654c.062.156.135.27.228.322a.474.474 0 0 0 .249.083c.145 0 .27-.042.374-.114s.187-.166.259-.26a2.18 2.18 0 0 0 .218-.374V3.097h-.01zM23.317 7.396c-.799 0-1.422-.218-1.858-.654-.446-.436-.664-1.049-.664-1.817 0-.384.052-.737.166-1.038s.27-.561.467-.779c.197-.218.436-.374.727-.488.28-.114.592-.166.934-.166.353 0 .664.052.934.145.28.104.509.239.706.405s.343.363.446.592c.104.228.156.467.156.727 0 .083 0 .166-.01.228s-.021.125-.031.176c-.021.062-.031.114-.052.156-.27.052-.561.104-.872.135-.259.042-.561.073-.903.093s-.696.042-1.069.042c0 .384.031.706.083.965s.135.467.228.612c.104.156.218.26.353.322s.291.093.446.093c.187 0 .363-.031.529-.104s.311-.156.426-.27c.125-.114.218-.249.291-.394s.104-.291.104-.446h.228c0 .187-.042.363-.125.54s-.208.332-.363.467a1.848 1.848 0 0 1-.561.322 1.736 1.736 0 0 1-.716.135zm-.935-2.481c.208 0 .394 0 .561-.01s.301-.021.415-.031c.135-.01.239-.031.332-.042.01-.062.031-.135.042-.208s.021-.145.031-.228c.01-.083.01-.176.01-.27 0-.28-.021-.519-.062-.706s-.093-.343-.166-.467c-.062-.114-.135-.208-.228-.249s-.166-.073-.249-.073c-.083 0-.166.031-.249.093s-.156.176-.228.332c-.062.166-.125.394-.166.696s-.042.685-.042 1.163zM29.256 2.766c-.187 0-.353.042-.498.114s-.27.166-.374.26a2.607 2.607 0 0 0-.301.374v3.457l.561.135v.135h-2.616v-.135l.561-.135V2.86l-.561-.135V2.59h.841c.218 0 .395.042.54.114.135.073.249.156.332.239a.994.994 0 0 1 .208.343 1.91 1.91 0 0 1 .343-.374c.114-.093.26-.176.436-.26s.374-.114.613-.114c.332 0 .581.083.747.228.166.156.239.374.239.654 0 .208-.062.384-.187.509s-.301.187-.509.187h-.145c-.052 0-.083-.01-.114-.01-.042-.01-.083-.01-.114-.031V2.767zM34.342 3.98c0-.208-.021-.394-.062-.55s-.093-.28-.166-.374a.512.512 0 0 0-.228-.218.564.564 0 0 0-.249-.073c-.145 0-.27.042-.374.114s-.197.166-.26.26a2.21 2.21 0 0 0-.208.374V6.97l.561.135v.135H30.74v-.135l.561-.135V2.859l-.561-.135v-.135h.841a1.2 1.2 0 0 1 .54.114c.135.073.249.156.332.239a.994.994 0 0 1 .208.343 1.79 1.79 0 0 1 .312-.426c.104-.104.249-.197.415-.291s.384-.135.633-.135c.27 0 .519.042.737.135a1.7 1.7 0 0 1 .945.831c.094.187.135.374.135.571v2.99l.561.135v.135h-1.215c-.561 0-.841-.28-.841-.841V3.98zM.986 13.801v-.384h7.215v.384l-1.516.384v7.838h5.44v-7.838l-1.516-.384v-.384h7.215v.384l-1.516.384V30.38l1.516.384v.384h-7.215v-.395l1.516-.384v-7.713h-5.44v7.713l1.516.384v.384H.986v-.384l1.516-.384V14.174L.986 13.8zM26.794 18.099c1.049 0 1.983.156 2.813.457s1.526.747 2.107 1.329c.581.581 1.028 1.287 1.329 2.118s.457 1.765.457 2.813-.156 1.983-.457 2.813c-.301.83-.748 1.526-1.329 2.107s-1.287 1.028-2.107 1.329c-.83.301-1.765.457-2.813.457s-1.983-.156-2.813-.457c-.83-.301-1.526-.747-2.107-1.329s-1.028-1.287-1.329-2.107c-.301-.831-.457-1.765-.457-2.813s.156-1.983.457-2.813c.301-.831.747-1.526 1.329-2.118s1.287-1.028 2.107-1.329c.831-.301 1.765-.457 2.813-.457zm0 12.904c.291 0 .571-.093.862-.28s.54-.509.768-.976c.228-.467.415-1.1.561-1.9s.218-1.817.218-3.052-.073-2.253-.218-3.052-.332-1.433-.561-1.9c-.228-.467-.488-.789-.768-.976s-.571-.28-.862-.28-.571.093-.862.28c-.291.187-.54.509-.768.976s-.415 1.1-.561 1.9c-.145.799-.218 1.817-.218 3.052s.073 2.253.218 3.052c.145.799.332 1.433.561 1.9s.488.789.768.976c.291.187.571.28.862.28zM52.469 22.273c0-.602-.052-1.121-.156-1.526s-.228-.747-.394-1.007a1.917 1.917 0 0 0-.529-.571 1.141 1.141 0 0 0-.571-.177c-.322 0-.602.104-.851.311s-.457.446-.644.696a5.772 5.772 0 0 0-.529 1.007v9.364l1.526.384v.384h-7.08v-.384l1.516-.384v-8.098c0-.602-.052-1.121-.156-1.526s-.228-.747-.394-1.007a1.917 1.917 0 0 0-.529-.571 1.141 1.141 0 0 0-.571-.177c-.322 0-.602.104-.851.311s-.457.446-.644.696a5.112 5.112 0 0 0-.529 1.007v9.364l1.516.384v.384h-7.08v-.384l1.516-.384V19.24l-1.516-.384v-.384h2.274c.592 0 1.08.104 1.453.301.384.197.675.426.903.654.249.291.436.602.561.934.218-.426.488-.799.81-1.142.291-.291.644-.55 1.059-.789.426-.239.934-.353 1.547-.353 1.007 0 1.889.228 2.616.675a4.558 4.558 0 0 1 1.682 1.734c.218-.436.488-.831.81-1.194a5.192 5.192 0 0 1 1.059-.831c.426-.249.934-.384 1.547-.384a5.33 5.33 0 0 1 1.9.332c.571.218 1.069.519 1.485.903s.737.82.965 1.329c.228.509.343 1.049.343 1.619v8.098l1.516.384v.384h-3.291c-1.516 0-2.274-.758-2.274-2.274V22.27h-.01zM66.389 31.512c-2.159 0-3.841-.592-5.035-1.786s-1.796-2.824-1.796-4.921c0-1.049.156-1.983.457-2.813s.727-1.526 1.267-2.118c.54-.581 1.194-1.028 1.962-1.329s1.609-.457 2.512-.457c.945 0 1.796.135 2.543.405s1.391.633 1.91 1.09c.519.457.924.997 1.204 1.609s.415 1.266.415 1.962c0 .239-.01.446-.042.623s-.052.332-.093.467c-.052.166-.093.311-.125.426-.747.156-1.526.28-2.357.384-.706.104-1.526.187-2.45.27-.924.073-1.9.114-2.907.114 0 1.049.073 1.921.228 2.616s.363 1.256.633 1.671c.27.415.592.706.965.882s.779.27 1.215.27c.509 0 .986-.093 1.433-.28s.83-.436 1.163-.747c.332-.311.592-.664.789-1.059s.291-.799.291-1.204h.633c0 .509-.114.997-.343 1.464-.228.478-.55.893-.976 1.256s-.924.654-1.516.872a5.802 5.802 0 0 1-1.983.332zm-2.533-6.706c.571 0 1.08-.01 1.516-.042s.81-.052 1.111-.083c.353-.031.654-.073.914-.125.031-.166.073-.353.125-.561.031-.187.062-.395.083-.623s.042-.467.042-.716c0-.758-.062-1.391-.177-1.91s-.27-.934-.446-1.256c-.177-.322-.384-.55-.602-.685-.228-.135-.457-.208-.675-.208s-.446.083-.675.239c-.228.166-.426.467-.602.914s-.322 1.08-.446 1.889c-.104.81-.166 1.869-.166 3.166zM84.257 30.879V20.612l-9.073-7.184v17.451h9.073zM95.478 30.879V20.612l-8.928-7.184v17.451h8.928z" />
        </symbol>
        <symbol id="inter" viewBox="0 0 34 32">
            <path
                d="M8.281 32H1.742V10.977h6.539V32zM4.977 8.164c-2.039 0-3.727-1.758-3.727-3.867C1.25 2.258 2.938.57 4.977.57c2.109 0 3.797 1.688 3.797 3.727 0 2.109-1.688 3.867-3.797 3.867zM32.68 32h-6.469V21.805c0-2.461-.07-5.555-3.445-5.555s-3.867 2.602-3.867 5.344V32H12.36V10.977h6.258v2.883h.07c.914-1.617 3.023-3.375 6.188-3.375 6.609 0 7.875 4.359 7.875 9.984V32h-.07z" />
        </symbol>
        <symbol id="instagram" viewBox="0 0 32 32">
            <path
                d="M16 8.191c4.156 0 7.587 3.431 7.587 7.587 0 4.222-3.431 7.587-7.587 7.587a7.547 7.547 0 0 1-7.587-7.587c0-4.156 3.365-7.587 7.587-7.587zm0 12.535c2.705 0 4.882-2.177 4.882-4.948A4.87 4.87 0 0 0 16 10.896c-2.771 0-4.948 2.177-4.948 4.882A4.941 4.941 0 0 0 16 20.726zm9.632-12.799c0 .99-.792 1.781-1.781 1.781s-1.781-.792-1.781-1.781.792-1.781 1.781-1.781c.99 0 1.781.792 1.781 1.781zm5.014 1.781c.132 2.441.132 9.764 0 12.205-.132 2.375-.66 4.42-2.375 6.201-1.715 1.715-3.826 2.243-6.201 2.375-2.441.132-9.764.132-12.205 0-2.375-.132-4.42-.66-6.201-2.375-1.715-1.781-2.243-3.826-2.375-6.201-.132-2.441-.132-9.764 0-12.205.132-2.375.66-4.486 2.375-6.201C5.445 1.792 7.49 1.264 9.865 1.132 12.306 1 19.629 1 22.07 1.132c2.375.132 4.486.66 6.201 2.375s2.243 3.826 2.375 6.201zm-3.167 14.778c.792-1.913.594-6.531.594-8.708 0-2.111.198-6.729-.594-8.708-.528-1.253-1.517-2.309-2.771-2.771-1.979-.792-6.597-.594-8.708-.594-2.177 0-6.795-.198-8.708.594A5.09 5.09 0 0 0 4.455 7.07c-.792 1.979-.594 6.597-.594 8.708 0 2.177-.198 6.795.594 8.708a5.003 5.003 0 0 0 2.837 2.837c1.913.792 6.531.594 8.708.594 2.111 0 6.729.198 8.708-.594 1.253-.528 2.309-1.517 2.771-2.837z" />
        </symbol>
        <symbol id="header-search" viewBox="0 0 31 32">
            <path stroke-linecap="round" stroke-linejoin="round" stroke-width="2"
                d="m22.245 22.913 7.088 7.088m-3.5-15.751c0 6.765-5.485 12.25-12.25 12.25s-12.25-5.485-12.25-12.25C1.333 7.484 6.817 2 13.583 2s12.25 5.484 12.25 12.25z" />
        </symbol>
        <symbol id="header-logo" viewBox="0 0 32 32">
            <path d="M0 32h12.667v-8.942a3.43 3.43 0 1 1 6.86 0V32h12.47V0C14.325 0-.001 14.326-.001 32z" />
        </symbol>
        <symbol id="facebook" viewBox="0 0 19 32">
            <path
                d="M16.309 17.474h-4.441v13.263H5.947V17.474H1.092v-5.447h4.855V7.823c0-4.737 2.842-7.401 7.164-7.401 2.072 0 4.263.414 4.263.414v4.678h-2.428c-2.368 0-3.079 1.421-3.079 2.961v3.553h5.27l-.829 5.447z" />
        </symbol>
        <symbol id="create-call" viewBox="0 0 32 32">
            <path stroke-miterlimit="10" stroke-width="1.882"
                d="M30.119 24.541c-1.15-1.158-3.934-2.849-5.285-3.53-1.759-.886-1.904-.959-3.287.069-.922.686-1.536 1.298-2.615 1.068s-3.425-1.528-5.479-3.576c-2.054-2.047-3.427-4.461-3.658-5.537s.392-1.682 1.071-2.606c.957-1.303.885-1.52.067-3.28-.638-1.368-2.378-4.127-3.54-5.27C6.149.65 6.149.868 5.348 1.201c-.652.274-1.278.608-1.87.997-1.158.77-1.801 1.409-2.251 2.369s-.652 3.213 1.67 7.431 3.951 6.374 7.323 9.736 5.964 5.17 9.754 7.295c4.689 2.626 6.487 2.114 7.451 1.665s1.606-1.086 2.377-2.244c.39-.591.724-1.216.999-1.868.334-.799.551-.799-.68-2.042z" />
        </symbol>
        <symbol id="quotation" viewBox="0 0 41 32">
            <path
                d="M8.55 30.81c-2.394 0-4.352-.798-5.875-2.394C1.224 26.82.499 24.681.499 21.997c0-4.715 1.559-8.813 4.678-12.294 3.191-3.482 6.999-6.347 11.424-8.595l1.088 1.85c-1.813 1.161-3.518 2.647-5.114 4.461a22.436 22.436 0 0 0-3.59 5.875l3.046 2.285c1.233.798 2.249 1.886 3.046 3.264.798 1.306 1.197 2.575 1.197 3.808 0 2.321-.725 4.279-2.176 5.875-1.378 1.523-3.228 2.285-5.549 2.285zm22.413 0c-2.394 0-4.352-.798-5.875-2.394-1.451-1.596-2.176-3.735-2.176-6.419 0-4.715 1.559-8.813 4.678-12.294 3.191-3.482 6.999-6.347 11.424-8.595l1.088 1.85c-1.813 1.161-3.518 2.647-5.114 4.461a22.436 22.436 0 0 0-3.59 5.875l3.046 2.285c1.233.798 2.249 1.886 3.046 3.264.798 1.306 1.197 2.575 1.197 3.808 0 2.321-.725 4.279-2.176 5.875-1.378 1.523-3.228 2.285-5.549 2.285z" />
        </symbol>
    </defs>
</svg>